<mxfile host="app.diagrams.net" agent="Mozilla/5.0 (X11; Ubuntu; Linux x86_64; rv:132.0) Gecko/20100101 Firefox/132.0" version="24.8.3">
  <diagram id="UfShJKd37wwSG0nN2TN0" name="Page-1">
    <mxGraphModel dx="1368" dy="840" grid="1" gridSize="10" guides="1" tooltips="1" connect="1" arrows="1" fold="1" page="1" pageScale="1" pageWidth="850" pageHeight="1100" math="0" shadow="0">
      <root>
        <mxCell id="0" />
        <mxCell id="1" parent="0" />
        <object label="test" placeholders="1" class_name="Clock_item" id="NdaAwexLkHMtAoHr-By2-11">
          <mxCell style="rounded=0;whiteSpace=wrap;html=1;fillColor=#fff2cc;strokeColor=#d6b656;container=0;connectable=0;allowArrows=0;treeFolding=0;moveCells=0;treeMoving=0;comic=0;rotatable=0;expand=1;autosize=1;resizeWidth=1;resizeHeight=1;metaEdit=1;" vertex="1" parent="1">
            <mxGeometry y="220" width="50" height="40" as="geometry">
              <mxRectangle x="40" y="400" width="50" height="40" as="alternateBounds" />
            </mxGeometry>
          </mxCell>
        </object>
        <object label="%class_name%" placeholders="1" id="NdaAwexLkHMtAoHr-By2-12">
          <mxCell style="rounded=0;whiteSpace=wrap;html=1;fillColor=#ffffff;fontSize=18;connectable=0;allowArrows=0;rotatable=0;cloneable=0;deletable=0;" vertex="1" parent="NdaAwexLkHMtAoHr-By2-11">
            <mxGeometry x="10" y="20" width="740" height="40" as="geometry" />
          </mxCell>
        </object>
        <mxCell id="NdaAwexLkHMtAoHr-By2-13" value="" style="rounded=0;whiteSpace=wrap;html=1;fillColor=#ffffff;connectable=0;allowArrows=0;container=1;collapsible=0;portConstraintRotation=0;rotatable=0;cloneable=0;deletable=0;recursiveResize=0;" vertex="1" parent="NdaAwexLkHMtAoHr-By2-11">
          <mxGeometry x="10" y="70" width="740" height="460" as="geometry">
            <mxRectangle x="10" y="70" width="50" height="40" as="alternateBounds" />
          </mxGeometry>
        </mxCell>
        <object label="OUT8" placeholders="1" name="OUT8" class_name="OutputPort" id="NdaAwexLkHMtAoHr-By2-21">
          <mxCell style="triangle;fillColor=#ffffff;fontSize=14;points=[[0,0.5],[1,0.5]];allowArrows=0;verticalAlign=middle;horizontal=1;spacingTop=0;align=left;spacingLeft=4;spacingRight=0;html=1;comic=0;treeFolding=0;treeMoving=0;movable=1;resizable=0;rotatable=1;deletable=1;editable=1;connectable=1;movableLabel=1;spacing=2;aspect=fixed;metaEdit=1;" vertex="1" parent="NdaAwexLkHMtAoHr-By2-13">
            <mxGeometry x="640" y="292.5" width="10" height="15" as="geometry">
              <mxPoint x="9" y="-14" as="offset" />
            </mxGeometry>
          </mxCell>
        </object>
        <mxCell id="NdaAwexLkHMtAoHr-By2-22" style="edgeStyle=none;curved=1;rounded=0;orthogonalLoop=1;jettySize=auto;html=1;exitX=1;exitY=0.5;exitDx=0;exitDy=0;entryX=0;entryY=0.5;entryDx=0;entryDy=0;fontSize=12;startSize=8;endSize=8;" edge="1" parent="NdaAwexLkHMtAoHr-By2-13" source="NdaAwexLkHMtAoHr-By2-72" target="NdaAwexLkHMtAoHr-By2-21">
          <mxGeometry relative="1" as="geometry">
            <mxPoint x="190" y="150.5" as="sourcePoint" />
            <mxPoint x="320" y="145" as="targetPoint" />
          </mxGeometry>
        </mxCell>
        <object label="%value%" placeholders="1" value="10" block_name="" class_name="ConstantBlock" id="NdaAwexLkHMtAoHr-By2-71">
          <mxCell style="ellipse;whiteSpace=wrap;html=1;comic=0;fillColor=#ffffff;fontSize=24;align=center;allowArrows=0;connectable=0;container=1;collapsible=0;recursiveResize=1;direction=west;resizable=0;metaEdit=1;" vertex="1" parent="NdaAwexLkHMtAoHr-By2-13">
            <mxGeometry x="60" y="130" width="80" height="80" as="geometry" />
          </mxCell>
        </object>
        <object label="%name%" placeholders="1" name="OUT1" class_name="OutputPort" id="NdaAwexLkHMtAoHr-By2-72">
          <mxCell style="triangle;fillColor=#ffffff;fontSize=14;points=[[1,0.5]];allowArrows=0;verticalAlign=middle;horizontal=1;spacingTop=0;align=left;spacingLeft=4;spacingRight=0;html=1;comic=0;treeFolding=0;treeMoving=0;movable=1;resizable=0;rotatable=1;deletable=1;editable=1;connectable=1;movableLabel=1;spacing=2;aspect=fixed;metaEdit=1;" vertex="1" parent="NdaAwexLkHMtAoHr-By2-71">
            <mxGeometry x="70" y="32.5" width="10" height="15" as="geometry">
              <mxPoint x="6" y="-7" as="offset" />
            </mxGeometry>
          </mxCell>
        </object>
        <object label="OUT8" placeholders="1" name="OUT8" class_name="OutputPort" id="NdaAwexLkHMtAoHr-By2-23">
          <mxCell style="triangle;fillColor=#ffffff;fontSize=14;points=[[0,0.5],[1,0.5]];allowArrows=0;verticalAlign=middle;horizontal=1;spacingTop=0;align=left;spacingLeft=4;spacingRight=0;html=1;comic=0;treeFolding=0;treeMoving=0;movable=1;resizable=0;rotatable=1;deletable=1;editable=1;connectable=1;movableLabel=1;spacing=2;aspect=fixed;metaEdit=1;" vertex="1" parent="NdaAwexLkHMtAoHr-By2-11">
            <mxGeometry x="40" y="12.5" width="10" height="15" as="geometry">
              <mxPoint x="5" y="-7" as="offset" />
            </mxGeometry>
          </mxCell>
        </object>
      </root>
    </mxGraphModel>
  </diagram>
</mxfile>
